<svg width="78" height="66" viewBox="0 0 78 66" fill="none" xmlns="http://www.w3.org/2000/svg">
<path d="M60.1171 -1.55847e-06C66.078 -1.03898e-06 70.5805 2.16808 73.6244 6.50434C76.5415 10.9681 78 17.1537 78 25.0609C78 34.1159 75.7805 42.087 71.3415 48.9739C66.9025 55.8609 60.1171 61.5362 50.9854 66L44.8976 53.7565C50.6049 50.8232 54.9171 47.4435 57.8341 43.6174C60.6244 39.9189 62.0195 35.2 62.0195 29.4609C61.639 29.5884 61.0049 29.6522 60.1171 29.6522C56.0586 29.6522 52.6342 28.3768 49.8439 25.8261C46.9269 23.4029 45.4683 20.0232 45.4683 15.6869C45.4683 10.8406 46.8634 7.01452 49.6537 4.20869C52.4439 1.40286 55.9317 -1.92321e-06 60.1171 -1.55847e-06ZM15.2195 -5.47121e-06C21.1805 -4.95173e-06 25.6829 2.16807 28.7268 6.50434C31.6439 10.9681 33.1024 17.1536 33.1024 25.0609C33.1024 34.1159 30.8829 42.0869 26.4439 48.9739C22.0049 55.8609 15.2195 61.5362 6.08781 66L1.07373e-06 53.7565C5.70732 50.8232 10.0195 47.4435 12.9366 43.6174C15.7269 39.9189 17.122 35.2 17.122 29.4609C16.7415 29.5884 16.1073 29.6522 15.2195 29.6522C11.161 29.6522 7.73661 28.3768 4.94634 25.8261C2.0293 23.4029 0.570736 20.0232 0.570737 15.6869C0.570737 10.8406 1.96583 7.01452 4.7561 4.20868C7.54638 1.40286 11.0341 -5.83596e-06 15.2195 -5.47121e-06Z" fill="#00D3D4"/>
</svg>
